<svg width="183" height="183" viewBox="0 0 183 183" fill="none" xmlns="http://www.w3.org/2000/svg">
<path d="M137.316 133.139L134.202 130.025V52.2912L137.354 49.1393C137.714 48.8883 138.014 48.5616 138.233 48.1821C138.453 47.8027 138.587 47.3797 138.625 46.943C138.664 46.5063 138.606 46.0664 138.456 45.6544C138.306 45.2424 138.068 44.8682 137.758 44.5582C137.448 44.2482 137.074 44.01 136.662 43.8602C136.25 43.7103 135.81 43.6527 135.373 43.6912C134.937 43.7296 134.514 43.8634 134.134 44.083C133.755 44.3025 133.428 44.6026 133.177 44.9621L128.848 49.3671H53.4303L49.1392 45.076C48.5043 44.4213 47.6551 44.0169 46.7468 43.9367C46.3491 43.8857 45.945 43.924 45.564 44.0488C45.183 44.1736 44.8346 44.3818 44.5442 44.6583C44.0006 45.3273 43.7401 46.1823 43.8181 47.0407C43.8962 47.8992 44.3066 48.6932 44.9619 49.2532L49.6708 53.9621V128.468L44.9619 133.177C44.6025 133.428 44.3024 133.755 44.0828 134.134C43.8633 134.514 43.7295 134.937 43.691 135.374C43.6525 135.81 43.7102 136.25 43.86 136.662C44.0098 137.074 44.2481 137.448 44.5581 137.758C44.8681 138.068 45.2423 138.307 45.6543 138.456C46.0663 138.606 46.5062 138.664 46.9429 138.625C47.3796 138.587 47.8025 138.453 48.182 138.234C48.5615 138.014 48.8882 137.714 49.1392 137.354L52.6708 133.823H129.608L133.139 137.354C133.39 137.714 133.717 138.014 134.096 138.234C134.476 138.453 134.899 138.587 135.335 138.625C135.772 138.664 136.212 138.606 136.624 138.456C137.036 138.307 137.41 138.068 137.72 137.758C138.03 137.448 138.268 137.074 138.418 136.662C138.568 136.25 138.626 135.81 138.587 135.374C138.549 134.937 138.415 134.514 138.195 134.134C137.976 133.755 137.676 133.428 137.316 133.177V133.139ZM128.202 124.063L114.911 110.81C119.501 105.343 121.985 98.4157 121.915 91.278C121.846 84.1402 119.227 77.2625 114.532 71.8861L128.164 58.2532L128.202 124.063ZM86.886 91.1393L72.6455 105.38C69.6559 101.274 68.0739 96.3125 68.1355 91.2344C68.1971 86.1563 69.899 81.2342 72.9873 77.2026L86.886 91.1393ZM77.1265 72.9874C81.1433 69.7036 86.1337 67.8409 91.3197 67.6898C96.5058 67.5387 101.596 69.1076 105.797 72.1519L91.1392 87L77.1265 72.9874ZM91.1392 95.3924L106.329 110.582C102.074 113.864 96.8199 115.583 91.448 115.452C86.076 115.32 80.9125 113.346 76.8227 109.861L91.1392 95.3924ZM95.3164 91.2152L110.127 76.3671C113.669 80.5395 115.638 85.8203 115.694 91.2932C115.749 96.7661 113.887 102.086 110.43 106.329L95.3164 91.2152ZM122.506 55.6709L110.127 67.8228C104.885 63.7384 98.4299 61.52 91.7847 61.519H90.2278C83.7816 61.8342 77.6118 64.2328 72.6455 68.3545L59.81 55.481L122.506 55.6709ZM56.2024 60.4178L68.3543 72.7216C64.1619 78.0104 61.8805 84.5612 61.8805 91.3102C61.8805 98.0591 64.1619 104.61 68.3543 109.899L56.2024 121.899V60.4178ZM58.7847 127.671L72.1518 114.19C77.4478 118.826 84.2102 121.444 91.2475 121.583C98.2848 121.722 105.145 119.373 110.62 114.949L123.342 127.671H58.7847Z" fill="#1A1919"/>
</svg>
