<?xml version="1.0" encoding="UTF-8" standalone="no"?>
<!-- Created with Inkscape (http://www.inkscape.org/) -->
<svg
   xmlns:svg="http://www.w3.org/2000/svg"
   xmlns="http://www.w3.org/2000/svg"
   version="1.0"
   x="0.0000000"
   y="0.0000000"
   width="375.00000"
   height="375.00000"
   id="svg1568">
  <defs
     id="defs1570" />
  <path
     d="M 299.74515,186.52923 C 299.75480,122.30773 249.49852,70.240613 187.50092,70.240613 C 125.50332,70.240613 75.247034,122.30773 75.256678,186.52923 C 75.247034,250.75074 125.50332,302.81785 187.50092,302.81785 C 249.49852,302.81785 299.75480,250.75074 299.74515,186.52923 L 299.74515,186.52923 z "
     style="fill:none;fill-opacity:0.75000000;fill-rule:evenodd;stroke:#000000;stroke-width:12.500001;stroke-linecap:butt;stroke-linejoin:miter;stroke-miterlimit:4.0000000;stroke-opacity:1.0000000"
     id="path1580" />
  <path
     d="M 77.243847,63.121933 L 77.243847,82.844589 L 86.173534,82.844589 C 89.478195,82.844616 92.032880,81.989148 93.837597,80.278183 C 95.642252,78.567277 96.544595,76.129779 96.544628,72.965683 C 96.544595,69.825098 95.642252,67.399319 93.837597,65.688339 C 92.032880,63.977448 89.478195,63.121980 86.173534,63.121933 L 77.243847,63.121933 M 70.142284,57.285995 L 86.173534,57.285995 C 92.056318,57.286048 96.497720,58.621984 99.497753,61.293808 C 102.52115,63.942291 104.03287,67.832912 104.03291,72.965683 C 104.03287,78.145402 102.52115,82.059461 99.497753,84.707870 C 96.497720,87.356330 92.056318,88.680548 86.173534,88.680527 L 77.243847,88.680527 L 77.243847,109.77428 L 70.142284,109.77428 L 70.142284,57.285995"
     transform="scale(2.240827,2.240827)"
     style="font-size:72.000000px;font-style:normal;font-variant:normal;font-weight:normal;font-stretch:normal;line-height:100.00000%;writing-mode:lr-tb;text-anchor:start;fill:#000000;fill-opacity:1.0000000;stroke:none;stroke-width:1.0000000pt;stroke-linecap:butt;stroke-linejoin:miter;stroke-opacity:1.0000000;font-family:Bitstream Vera Sans"
     id="text914" />
</svg>
