<svg width="183" height="183" viewBox="0 0 183 183" fill="none" xmlns="http://www.w3.org/2000/svg">
<path d="M124.975 119.24C131.6 111.244 135.159 101.148 135.013 90.7645C134.867 80.3809 131.025 70.3893 124.177 62.5823L131.127 55.6329C131.476 55.3168 131.758 54.9341 131.957 54.5073C132.156 54.0805 132.268 53.6182 132.285 53.1476C132.303 52.677 132.227 52.2076 132.06 51.767C131.894 51.3265 131.641 50.9237 131.317 50.5823C130.986 50.2449 130.59 49.9796 130.152 49.8031C129.714 49.6267 129.244 49.5428 128.772 49.5569C127.779 49.6274 126.847 50.0598 126.152 50.7721L119.241 57.6835C111.379 51.1317 101.468 47.5437 91.2343 47.5437C81.0002 47.5437 71.09 51.1317 63.228 57.6835L56.7343 51.1899C56.4294 50.814 56.0489 50.5063 55.6174 50.2868C55.186 50.0674 54.7133 49.941 54.23 49.9159C53.7466 49.8907 53.2633 49.9675 52.8115 50.141C52.3596 50.3146 51.9493 50.5811 51.607 50.9234C51.2648 51.2656 50.9982 51.676 50.8247 52.1278C50.6511 52.5796 50.5744 53.0629 50.5995 53.5463C50.6247 54.0297 50.7511 54.5024 50.9705 54.9338C51.19 55.3652 51.4976 55.7457 51.8735 56.0506L58.2912 62.4683C51.3575 70.2913 47.46 80.342 47.3067 90.7944C47.1534 101.247 50.7545 111.407 57.4558 119.43L49.8609 127.025C49.4847 127.34 49.1781 127.729 48.9607 128.168C48.7432 128.608 48.6197 129.088 48.5978 129.578C48.576 130.067 48.6564 130.556 48.8339 131.013C49.0113 131.47 49.282 131.885 49.6287 132.232C49.9754 132.579 50.3905 132.85 50.8475 133.027C51.3045 133.204 51.7935 133.285 52.2833 133.263C52.7731 133.241 53.2529 133.118 53.6924 132.9C54.1318 132.683 54.5211 132.376 54.8355 132L62.4305 124.405C70.4206 131.416 80.6972 135.266 91.3272 135.231C101.957 135.196 112.208 131.279 120.152 124.215L127.747 131.81C128.066 132.155 128.45 132.433 128.876 132.629C129.303 132.825 129.764 132.935 130.233 132.953C130.702 132.97 131.17 132.895 131.61 132.732C132.05 132.568 132.454 132.32 132.798 132C133.424 131.274 133.752 130.338 133.717 129.38C133.681 128.423 133.285 127.513 132.608 126.835L124.975 119.24ZM129.114 91.481C129.128 100.045 126.206 108.355 120.836 115.025L96.3039 90.5696L119.962 66.9114C125.874 73.7306 129.124 82.4558 129.114 91.481ZM91.5191 53.8861C100.017 53.8742 108.266 56.7534 114.912 62.0506L91.1394 85.5949L67.7469 62.2025C74.4528 56.7852 82.8226 53.8477 91.4431 53.8861H91.5191ZM53.9242 91.481C53.9112 82.4917 57.1327 73.7977 63.0001 66.9873L86.4685 90.4557L62.0887 114.835C56.7724 108.211 53.8665 99.9752 53.8482 91.481H53.9242ZM91.5191 129.076C82.4933 129.09 73.7669 125.839 66.9495 119.924L91.4431 95.4304L116.013 120C109.188 125.898 100.463 129.135 91.4431 129.114L91.5191 129.076Z" fill="#1A1919"/>
</svg>
