<svg width="183" height="183" viewBox="0 0 183 183" fill="none" xmlns="http://www.w3.org/2000/svg">
<path d="M143.696 123.114L126.342 64.7848C125.752 62.7233 124.653 60.8432 123.147 59.3171C121.641 57.7909 119.775 56.6677 117.722 56.0506C115.824 55.425 113.833 55.1296 111.836 55.1772H65.3925C64.9623 55.1895 64.5392 55.2898 64.1492 55.4719C63.7592 55.6539 63.4107 55.914 63.125 56.2359C62.8394 56.5578 62.6227 56.9348 62.4883 57.3437C62.3539 57.7525 62.3047 58.1846 62.3437 58.6132C62.3826 59.0418 62.509 59.4579 62.7149 59.8358C62.9208 60.2137 63.2019 60.5455 63.5409 60.8106C63.8799 61.0757 64.2697 61.2686 64.6861 61.3774C65.1025 61.4862 65.5368 61.5085 65.9621 61.443H112.177C113.463 61.3686 114.751 61.536 115.975 61.9367C117.063 62.1787 118.062 62.7191 118.86 63.4971C119.658 64.2752 120.224 65.2602 120.494 66.3418L126.38 86.3924H77.0128C62.5824 86.3924 52.633 90.4557 46.633 97.443C40.811 105.031 37.9615 114.484 38.6204 124.025C38.6204 124.851 38.9484 125.643 39.5324 126.227C40.1164 126.811 40.9084 127.139 41.7343 127.139H140.506C140.998 127.149 141.486 127.042 141.928 126.827C142.371 126.611 142.756 126.295 143.053 125.902C143.349 125.509 143.548 125.052 143.634 124.567C143.719 124.082 143.689 123.584 143.544 123.114H143.696ZM45.5697 120.987C45.4262 114.1 47.5622 107.358 51.6457 101.81C56.3166 96.4177 64.1014 92.8861 77.3925 92.8861H128.43L136.709 120.987H45.5697Z" fill="#1A1919"/>
<path d="M93.4559 113.734C97.0842 113.734 100.025 110.793 100.025 107.165C100.025 103.536 97.0842 100.595 93.4559 100.595C89.8276 100.595 86.8862 103.536 86.8862 107.165C86.8862 110.793 89.8276 113.734 93.4559 113.734Z" fill="#1A1919"/>
</svg>
