<?xml version="1.0" encoding="UTF-8" standalone="no"?>
<!-- Created with Inkscape (http://www.inkscape.org/) -->
<svg
   xmlns:svg="http://www.w3.org/2000/svg"
   xmlns="http://www.w3.org/2000/svg"
   version="1.0"
   x="0.0000000"
   y="0.0000000"
   width="375.00000"
   height="375.00000"
   id="svg559">
  <defs
     id="defs561" />
  <path
     d="M 187.49980,75.000010 L 56.250000,318.75000 L 318.75000,318.75000 L 187.49980,75.000010 z "
     style="font-size:12.000000px;fill:none;fill-rule:evenodd;stroke:#000000;stroke-width:12.500000;stroke-linecap:butt;stroke-linejoin:miter"
     id="path569" />
  <path
     d="M 152.06323,127.68643 L 152.06323,135.17471 C 149.67256,132.94819 147.11788,131.28413 144.39917,130.18253 C 141.70382,129.08101 138.83273,128.53023 135.78589,128.53018 C 129.78586,128.53023 125.19212,130.37007 122.00464,134.04971 C 118.81713,137.70600 117.22338,143.00287 117.22339,149.94034 C 117.22338,156.85442 118.81713,162.15129 122.00464,165.83096 C 125.19212,169.48722 129.78586,171.31534 135.78589,171.31534 C 138.83273,171.31534 141.70382,170.76456 144.39917,169.66299 C 147.11788,168.56144 149.67256,166.89738 152.06323,164.67081 L 152.06323,172.08878 C 149.57881,173.77628 146.94210,175.04190 144.15308,175.88565 C 141.38742,176.72940 138.45773,177.15127 135.36401,177.15128 C 127.41868,177.15127 121.16087,174.72550 116.59058,169.87393 C 112.02026,164.99894 109.73510,158.35442 109.73511,149.94034 C 109.73510,141.50287 112.02026,134.85835 116.59058,130.00674 C 121.16087,125.13180 127.41868,122.69430 135.36401,122.69424 C 138.50461,122.69430 141.45773,123.11617 144.22339,123.95987 C 147.01241,124.78023 149.62569,126.02242 152.06323,127.68643 M 163.10229,123.64346 L 170.20386,123.64346 L 170.20386,170.15518 L 195.76245,170.15518 L 195.76245,176.13174 L 163.10229,176.13174 L 163.10229,123.64346"
     transform="scale(1.267741,1.581568)"
     style="font-size:72.000000px;font-style:normal;font-variant:normal;font-weight:normal;font-stretch:normal;writing-mode:lr-tb;text-anchor:start;fill:#000000;fill-opacity:1.0000000;stroke:none;stroke-width:1.0000000pt;stroke-linecap:butt;stroke-linejoin:miter;stroke-opacity:1.0000000;font-family:Bitstream Vera Sans"
     id="text936" />
</svg>
