<svg width="183" height="183" viewBox="0 0 183 183" fill="none" xmlns="http://www.w3.org/2000/svg">
<path fill-rule="evenodd" clip-rule="evenodd" d="M73.5594 84.0312L89.2412 54.0596L104.595 83.4049L88.7641 99.2361L73.5594 84.0312ZM66.5717 85.0992L51.8416 70.3691C50.7294 69.2568 50.7294 67.4535 51.8416 66.3412C52.9539 65.2289 54.7572 65.2289 55.8695 66.3412L69.3388 79.8106L85.8765 48.2034C87.2975 45.4874 91.1849 45.4874 92.606 48.2034L108.816 79.1843L121.659 66.3412C122.771 65.2289 124.575 65.2289 125.687 66.3412C126.799 67.4534 126.799 69.2568 125.687 70.369L111.583 84.4729L134.02 127.355C135.343 129.883 133.509 132.913 130.655 132.913H122.44L125.264 135.736C126.376 136.849 126.376 138.652 125.264 139.764C124.152 140.876 122.349 140.876 121.236 139.764L114.385 132.913H63.1433L56.2918 139.764C55.1795 140.876 53.3762 140.876 52.2639 139.764C51.1516 138.652 51.1516 136.848 52.2639 135.736L55.0875 132.913H47.8275C44.9739 132.913 43.1399 129.883 44.4628 127.355L66.5717 85.0992ZM60.7838 127.216H50.964L70.7923 89.3198L84.7363 103.264L60.7838 127.216ZM68.8395 127.216H108.688L88.7641 107.292L68.8395 127.216ZM116.744 127.216H127.519L107.362 88.6935L92.792 103.264L116.744 127.216Z" fill="black"/>
</svg>
