<svg width="183" height="183" viewBox="0 0 183 183" fill="none" xmlns="http://www.w3.org/2000/svg">
<path d="M121.139 137.013H60.7596C59.9881 137.098 59.2752 137.464 58.7573 138.042C58.2395 138.621 57.9531 139.369 57.9531 140.146C57.9531 140.922 58.2395 141.671 58.7573 142.249C59.2752 142.827 59.9881 143.193 60.7596 143.278H121.025C121.856 143.278 122.653 142.948 123.241 142.361C123.828 141.773 124.158 140.976 124.158 140.146C124.158 139.315 123.828 138.518 123.241 137.93C122.653 137.343 121.856 137.013 121.025 137.013H121.139Z" fill="#1A1919"/>
<path d="M147.456 58.481C147.013 58.2449 146.521 58.1179 146.019 58.1105C145.518 58.103 145.022 58.2154 144.572 58.4382C144.123 58.661 143.733 58.9879 143.435 59.3916C143.138 59.7954 142.941 60.2643 142.861 60.7595L140.506 67.8987C138.833 66.4523 136.776 65.5242 134.584 65.2275C132.393 64.9308 130.162 65.2784 128.165 66.2278C124.367 67.6329 121.823 71.4303 117.684 71.6202C113.886 70.9367 111.38 67.1392 107.62 66.0379C105.516 65.479 103.299 65.4942 101.202 66.0819C99.1054 66.6696 97.2041 67.8083 95.6963 69.3797C93.6457 71.0506 90.7216 72.5696 88.1014 70.7468C84.5318 68.3924 80.8862 64.9747 76.2533 65.6582C71.6204 66.3417 68.6583 70.2911 64.5191 71.5443C60.7216 71.8481 57.9874 68.1645 54.7216 66.5696C52.6975 65.4405 50.3881 64.9259 48.0761 65.0886C45.6537 65.2294 43.3451 66.1635 41.5064 67.7468L39.3039 60.7595C39.2027 60.3346 39.0143 59.9355 38.7507 59.5873C38.487 59.2391 38.1539 58.9496 37.7725 58.7369C37.391 58.5243 36.9695 58.3933 36.5348 58.3521C36.1 58.311 35.6614 58.3606 35.2468 58.4979C34.8323 58.6353 34.4508 58.8572 34.1265 59.1498C33.8022 59.4423 33.5423 59.799 33.3632 60.1973C33.1841 60.5956 33.0897 61.0268 33.086 61.4635C33.0824 61.9002 33.1695 62.3329 33.3419 62.7341L55.3672 127.291C55.5662 127.913 55.9555 128.456 56.4802 128.845C57.005 129.233 57.6385 129.447 58.2913 129.456H124.747C125.419 129.471 126.078 129.269 126.626 128.879C127.174 128.488 127.58 127.932 127.785 127.291L148.747 62.7341C149.137 61.9985 149.221 61.1382 148.979 60.3412C148.737 59.5443 148.189 58.8755 147.456 58.481ZM138.874 74.0126L122.81 123.38H60.7596L43.8988 73.519C44.3599 72.6396 45.0401 71.8941 45.8735 71.3544C46.857 70.6843 48.0256 70.339 49.2153 70.3671C51.1631 70.399 53.0353 71.1263 54.4938 72.4177C55.9628 73.9299 57.7415 75.1066 59.7079 75.8669C61.6743 76.6273 63.7819 76.9533 65.8862 76.8228C69.9115 76.1772 72.7216 73.0253 76.2533 71.1645C79.7849 69.3038 82.3672 73.2911 85.0634 74.962C86.7638 76.233 88.8169 76.9448 90.9391 76.9992C93.0614 77.0537 95.1482 76.448 96.9115 75.2658C99.7976 73.7468 102.304 70.3671 105.911 71.0506C109.709 72.4177 112.253 76.2152 116.393 76.8228C121.329 77.8481 125.468 74.4683 129.304 71.924C130.045 71.3555 130.901 70.9546 131.812 70.7489C132.723 70.5432 133.667 70.5377 134.581 70.7326C135.494 70.9276 136.354 71.3184 137.102 71.8781C137.85 72.4379 138.467 73.1532 138.912 73.9746C138.885 73.9858 138.86 73.9985 138.836 74.0126H138.874Z" fill="#1A1919"/>
<path d="M86.0143 104.838H90.0416V109.177H86.0143V116.386H80.6073V109.177H66.6116L66.4558 105.884L80.4293 83.9893H86.0143V104.838ZM72.1298 104.838H80.6073V91.3098L80.2068 92.0219L72.1298 104.838Z" fill="black"/>
<path d="M114.74 102.747C114.74 107.405 113.865 110.92 112.114 113.294C110.379 115.652 107.731 116.831 104.171 116.831C100.67 116.831 98.0297 115.682 96.2496 113.383C94.4844 111.069 93.5795 107.649 93.535 103.125V97.5178C93.535 92.86 94.4028 89.3666 96.1384 87.0377C97.8888 84.7088 100.551 83.5443 104.126 83.5443C107.672 83.5443 110.312 84.6791 112.048 86.9487C113.798 89.2183 114.696 92.6152 114.74 97.1395V102.747ZM109.333 96.6945C109.333 93.6536 108.918 91.4285 108.087 90.0193C107.256 88.5952 105.936 87.8832 104.126 87.8832C102.361 87.8832 101.063 88.5582 100.233 89.908C99.4018 91.2431 98.9642 93.3347 98.9197 96.1828V103.526C98.9197 106.552 99.3425 108.806 100.188 110.29C101.034 111.773 102.361 112.515 104.171 112.515C105.906 112.515 107.19 111.832 108.02 110.468C108.851 109.088 109.289 106.937 109.333 104.015V96.6945Z" fill="black"/>
</svg>
