<svg width="183" height="183" viewBox="0 0 183 183" fill="none" xmlns="http://www.w3.org/2000/svg">
<path d="M146.848 59.4683C146.078 59.2611 145.258 59.3535 144.553 59.727C143.848 60.1005 143.312 60.7273 143.051 61.481L140.506 68.7341L140.013 68.3544C137.808 66.7778 135.143 65.9783 132.434 66.0814C129.726 66.1845 127.129 67.1844 125.051 68.924C123.536 70.1245 121.877 71.1322 120.114 71.924C120.494 70.5569 120.835 69.1519 121.139 67.7468C121.785 63.9493 121.671 63.3417 122.203 61.3671C122.603 59.4751 123.123 57.6106 123.76 55.7848C125.696 51.9873 127.785 48.1898 129.722 44.1265C129.85 43.7202 129.895 43.2924 129.855 42.8683C129.815 42.4442 129.69 42.0324 129.489 41.6572C129.287 41.282 129.012 40.951 128.68 40.6838C128.348 40.4165 127.967 40.2185 127.557 40.1012C119.278 35.2025 111.076 30.3797 102.722 25.5949C102.273 25.4839 101.803 25.4839 101.354 25.5949C99.2658 26.0126 98.8101 28.3671 97.557 29.886C95.8074 33.406 93.6674 36.718 91.1772 39.7595C87.9494 42.6455 83.2405 42.6076 79.7848 45.0379C74.7342 47.962 72.1899 53.3924 69.4177 58.1392C68.8861 59.0886 68.3544 60.0759 67.7469 61.0633C66.6131 63.1681 65.9156 65.48 65.6962 67.8607C65.6975 68.423 65.7611 68.9834 65.8861 69.5316C66.0894 70.215 66.4107 70.8576 66.8355 71.4303C65.7055 72.1442 64.3663 72.4522 63.038 72.3038C59.0127 71.1645 56.4304 67.2152 52.2912 66.2278C50.9837 65.8573 49.6195 65.7286 48.2658 65.8481C45.8878 65.9622 43.6102 66.8413 41.7722 68.3544L39.4177 61.405C39.1656 60.6717 38.6521 60.0571 37.9753 59.6787C37.2985 59.3003 36.506 59.1846 35.7493 59.3538C34.9926 59.523 34.3248 59.9652 33.8736 60.5958C33.4224 61.2265 33.2196 62.0013 33.3038 62.7721C33.2874 62.9616 33.2874 63.1522 33.3038 63.3417L55.3291 127.899C55.5281 128.52 55.9175 129.064 56.4422 129.452C56.9669 129.841 57.6004 130.055 58.2532 130.063H124.709C125.362 130.055 125.995 129.841 126.52 129.452C127.045 129.064 127.434 128.52 127.633 127.899L148.671 63.3417C148.91 62.5852 148.856 61.7661 148.518 61.0481C148.18 60.3301 147.584 59.7659 146.848 59.4683ZM72.1519 65.7721C74.5823 61.5569 76.8608 57.3038 79.481 53.2405C81.5978 50.4488 84.6649 48.5302 88.1013 47.8481C90.6184 47.0813 92.9533 45.8106 94.964 44.1133C96.9747 42.4159 98.6192 40.3274 99.7975 37.9746L103.139 32.0886L123.797 44.0126C122.127 47.3544 120.228 50.5822 118.709 54C115.937 61.5949 116.165 70.1772 111.76 77.2025C107.962 83.4303 104.582 89.8101 100.899 96C99.7215 97.5949 96.1899 96.4557 98.2405 94.6329C101.43 89.0886 104.62 83.5443 107.734 78C106.101 77.6582 103.595 74.2025 102.532 75.7595C98.0127 83.5822 93.5317 91.443 89.0127 99.2658C87.2279 102.152 84.076 98.5822 86.3544 96.6076C90.1519 90.0379 93.9494 83.6582 97.7468 77.0506C96.3111 75.8562 94.6964 74.8951 92.962 74.2025C91.1393 77.2025 89.1646 80.5063 87.4937 83.5822C84.6076 88.405 82.0253 93.3797 79.0633 98.1645C76.9367 100.785 74.1266 96.8734 76.519 95.0506C79.6709 89.6202 82.9367 84.1898 86.1266 78.7215C87.4937 76.367 88.8228 73.9367 90.1519 71.5822C88.519 70.6708 86.8861 69.7974 85.3671 68.7341C81.5696 74.962 78.1139 81.3797 74.3924 87.7215C73.7469 88.8607 72.7215 91.2152 71.1646 89.6962C69.6076 88.1772 71.4304 85.8987 72.2279 84.4936C76.9747 76.2151 81.7215 67.8987 86.5063 59.6202C86.8197 59.0906 86.9479 58.4719 86.8709 57.8614C86.7938 57.2509 86.5159 56.6834 86.0808 56.2483C85.6457 55.8132 85.0782 55.5353 84.4677 55.4582C83.8572 55.3812 83.2384 55.5094 82.7089 55.8227C81.038 56.6962 80.5063 58.7468 79.481 60.2278C78.2326 62.5509 76.8636 64.8071 75.3798 66.9873C74.1266 68.8481 69.8355 68.924 72.1519 65.7721ZM122.81 123.949H60.9494L44.0127 74.2405C44.4288 73.3659 45.0713 72.6186 45.8734 72.0759C46.858 71.4081 48.0258 71.0631 49.2152 71.0886C51.2023 71.0931 53.1196 71.8222 54.6076 73.1392C56.0766 74.6514 57.8553 75.8281 59.8218 76.5884C61.7882 77.3488 63.8958 77.6748 66 77.5443C67.867 77.1851 69.6232 76.3916 71.1266 75.2278C69.3038 78.3417 67.3291 81.4557 65.7722 84.6455C64.9838 86.4036 64.8652 88.3892 65.4387 90.2286C66.0122 92.068 67.2383 93.6344 68.8861 94.6329C71.2785 94.6329 70.9747 95.7721 70.6329 97.6708C70.5372 98.5558 70.636 99.4511 70.9222 100.294C71.2084 101.137 71.6752 101.907 72.29 102.551C72.9048 103.194 73.6528 103.696 74.4816 104.021C75.3104 104.346 76.2002 104.485 77.0886 104.43C79.3671 104.658 81.7595 101.051 82.7469 104.43C83.5043 105.035 84.3736 105.484 85.305 105.753C86.2365 106.021 87.2116 106.103 88.1747 105.993C89.1378 105.884 90.0698 105.586 90.9174 105.115C91.7649 104.645 92.5114 104.012 93.1139 103.253C94.1393 102.456 94.6329 99.2658 95.962 101.772C97.8437 102.619 99.9819 102.695 101.919 101.985C103.857 101.276 105.439 99.8362 106.329 97.9746C110.127 91.2531 114.152 84.6835 117.722 77.924C122.696 78.1898 126.228 74.1265 130.329 72.1519C131.812 71.4579 133.501 71.3459 135.062 71.8382C136.624 72.3305 137.943 73.3911 138.76 74.8101L122.81 123.949Z" fill="#1A1919"/>
</svg>
