<?xml version="1.0" encoding="UTF-8" standalone="no"?>
<!-- Created with Inkscape (http://www.inkscape.org/) -->
<svg
   xmlns:svg="http://www.w3.org/2000/svg"
   xmlns="http://www.w3.org/2000/svg"
   version="1.0"
   x="0.0000000"
   y="0.0000000"
   width="375.00000"
   height="375.00000"
   id="svg1">
  <defs
     id="defs3" />
  <path
     d="M 110.99290,117.15312 L 138.87181,117.15312 L 138.87181,123.12968 L 117.49681,123.12968 L 117.49681,135.99687 C 118.52805,135.64534 119.55929,135.38753 120.59056,135.22343 C 121.62179,135.03597 122.65304,134.94222 123.68431,134.94218 C 129.54366,134.94222 134.18428,136.54769 137.60619,139.75859 C 141.02802,142.96955 142.73896,147.31721 142.73900,152.80156 C 142.73896,158.45001 140.98115,162.84453 137.46556,165.98515 C 133.94991,169.10234 128.99288,170.66093 122.59447,170.66093 C 120.39132,170.66093 118.14133,170.47343 115.84447,170.09843 C 113.57102,169.72343 111.21555,169.16093 108.77806,168.41093 L 108.77806,161.27422 C 110.88743,162.42266 113.06711,163.27813 115.31712,163.84062 C 117.56711,164.40313 119.94601,164.68438 122.45384,164.68437 C 126.50851,164.68438 129.71944,163.61797 132.08665,161.48515 C 134.45381,159.35235 135.63740,156.45782 135.63744,152.80156 C 135.63740,149.14533 134.45381,146.25080 132.08665,144.11797 C 129.71944,141.98518 126.50851,140.91878 122.45384,140.91875 C 120.55539,140.91878 118.65695,141.12971 116.75853,141.55156 C 114.88352,141.97346 112.96164,142.62971 110.99290,143.52031 L 110.99290,117.15312 M 171.95384,121.82890 C 168.29757,121.82895 165.54367,123.63364 163.69212,127.24297 C 161.86399,130.82894 160.94992,136.23128 160.94994,143.45000 C 160.94992,150.64533 161.86399,156.04767 163.69212,159.65703 C 165.54367,163.24297 168.29757,165.03594 171.95384,165.03593 C 175.63350,165.03594 178.38741,163.24297 180.21556,159.65703 C 182.06709,156.04767 182.99287,150.64533 182.99290,143.45000 C 182.99287,136.23128 182.06709,130.82894 180.21556,127.24297 C 178.38741,123.63364 175.63350,121.82895 171.95384,121.82890 M 171.95384,116.20390 C 177.83663,116.20396 182.32490,118.53599 185.41869,123.20000 C 188.53583,127.84066 190.09443,134.59066 190.09447,143.45000 C 190.09443,152.28595 188.53583,159.03595 185.41869,163.70000 C 182.32490,168.34062 177.83663,170.66093 171.95384,170.66093 C 166.07101,170.66093 161.57102,168.34062 158.45384,163.70000 C 155.36009,159.03595 153.81321,152.28595 153.81322,143.45000 C 153.81321,134.59066 155.36009,127.84066 158.45384,123.20000 C 161.57102,118.53599 166.07101,116.20396 171.95384,116.20390"
     transform="scale(1.255735,1.453502)"
     style="font-size:72.000000px;font-style:normal;font-variant:normal;font-weight:normal;font-stretch:normal;writing-mode:lr-tb;text-anchor:start;fill:#000000;fill-opacity:1.0000000;stroke:none;stroke-width:1.0000000pt;stroke-linecap:butt;stroke-linejoin:miter;stroke-opacity:1.0000000;font-family:Bitstream Vera Sans"
     id="text2897" />
  <g
     id="g2806">
    <path
       d="M 46.352165,145.54748 C 69.810441,145.54748 69.810441,124.65767 93.268724,124.65767 C 116.72698,124.65767 116.72698,145.54748 140.18525,145.54748 C 163.64355,145.54748 163.64355,124.65767 187.10180,124.65767 C 210.56007,124.65767 210.56007,145.54748 234.01836,145.54748 C 257.47663,145.54748 257.47663,124.65767 280.93489,124.65767 C 304.39316,124.65767 304.39316,145.54748 327.85144,145.54748"
       style="fill:none;fill-opacity:1.0000000;fill-rule:evenodd;stroke:#000000;stroke-width:12.500000;stroke-linecap:butt;stroke-linejoin:miter;stroke-miterlimit:4.0000000;stroke-opacity:1.0000000"
       id="path687" />
    <path
       d="M 37.456350,106.87084 L 71.853509,278.85663 L 302.16847,278.85663 L 337.60154,106.87084"
       style="fill:none;fill-opacity:1.0000000;fill-rule:evenodd;stroke:#000000;stroke-width:12.500000;stroke-linecap:round;stroke-linejoin:round;stroke-miterlimit:4.0000000;stroke-dashoffset:0.0000000;stroke-opacity:1.0000000"
       id="path688" />
  </g>
</svg>
