<?xml version="1.0" encoding="UTF-8" standalone="no"?>
<!-- Created with Inkscape (http://www.inkscape.org/) -->
<svg
   xmlns:svg="http://www.w3.org/2000/svg"
   xmlns="http://www.w3.org/2000/svg"
   version="1.0"
   x="0.0000000"
   y="0.0000000"
   width="375.00000"
   height="375.00000"
   id="svg1568">
  <defs
     id="defs1570" />
  <path
     d="M 299.74515,186.52923 C 299.75480,122.30773 249.49852,70.240613 187.50092,70.240613 C 125.50332,70.240613 75.247034,122.30773 75.256678,186.52923 C 75.247034,250.75074 125.50332,302.81785 187.50092,302.81785 C 249.49852,302.81785 299.75480,250.75074 299.74515,186.52923 L 299.74515,186.52923 z "
     style="fill:none;fill-opacity:0.75000000;fill-rule:evenodd;stroke:#000000;stroke-width:12.500001;stroke-linecap:butt;stroke-linejoin:miter;stroke-miterlimit:4.0000000;stroke-opacity:1.0000000"
     id="path1580" />
  <path
     d="M 50.962955,59.783722 L 58.134830,59.783722 L 69.173893,104.15091 L 80.177799,59.783722 L 88.158268,59.783722 L 99.197330,104.15091 L 110.20124,59.783722 L 117.40827,59.783722 L 104.22467,112.27200 L 95.294987,112.27200 L 84.220768,66.709503 L 73.041080,112.27200 L 64.111393,112.27200 L 50.962955,59.783722"
     transform="scale(2.240827,2.240827)"
     style="font-size:72.000000px;font-style:normal;font-variant:normal;font-weight:normal;font-stretch:normal;line-height:100.00000%;writing-mode:lr-tb;text-anchor:start;fill:#000000;fill-opacity:1.0000000;stroke:none;stroke-width:1.0000000pt;stroke-linecap:butt;stroke-linejoin:miter;stroke-opacity:1.0000000;font-family:Bitstream Vera Sans"
     id="text914" />
  <path
     d="M 78.369170,328.12003 L 299.18772,328.12003"
     style="fill:none;fill-opacity:0.75000000;fill-rule:evenodd;stroke:#000000;stroke-width:12.715483;stroke-linecap:round;stroke-linejoin:miter;stroke-miterlimit:4.0000000;stroke-opacity:1.0000000"
     id="path1556" />
</svg>
